<svg xmlns="http://www.w3.org/2000/svg" width="27.404" height="27.406" viewBox="0 0 27.404 27.406">
  <g id="Grupo_8552" data-name="Grupo 8552" transform="translate(7084.661 20367.518)">
    <g id="Grupo_1" data-name="Grupo 1" transform="translate(-7083.911 -20366.768)">
      <g id="Grupo_917" data-name="Grupo 917" transform="translate(0 0)">
        <path id="Trazado_822" data-name="Trazado 822" d="M168.961,89.922a.75.75,0,0,1-.686-.447,13.7,13.7,0,1,1,25.086,0,.75.75,0,0,1-1.372-.607,12.2,12.2,0,1,0-22.342,0,.75.75,0,0,1-.686,1.054Z" transform="translate(-167.865 -71.017)" fill="#fece00"/>
        <path id="Trazado_823" data-name="Trazado 823" d="M189.194,88.091a.748.748,0,0,1-.548-.238,12.219,12.219,0,0,0-3.971-2.837,12.166,12.166,0,0,0-9.876,0,12.219,12.219,0,0,0-3.971,2.837.75.75,0,0,1-1.1-1.024,13.711,13.711,0,0,1,4.456-3.183,13.666,13.666,0,0,1,11.1,0,13.711,13.711,0,0,1,4.456,3.183.75.75,0,0,1-.548,1.262Z" transform="translate(-166.785 -65.559)" fill="#fece00"/>
        <path id="Trazado_824" data-name="Trazado 824" d="M179.737,90.94a13.534,13.534,0,0,1-5.549-1.177,13.707,13.707,0,0,1-4.456-3.184.75.75,0,0,1,1.1-1.024,12.214,12.214,0,0,0,3.971,2.838,12.164,12.164,0,0,0,9.876,0,12.214,12.214,0,0,0,3.971-2.838.75.75,0,1,1,1.1,1.024,13.707,13.707,0,0,1-4.456,3.184A13.534,13.534,0,0,1,179.737,90.94Z" transform="translate(-166.785 -64.285)" fill="#fece00"/>
      </g>
      <path id="Elipse_3" data-name="Elipse 3" d="M4.69,1.5A3.19,3.19,0,1,0,7.88,4.69,3.194,3.194,0,0,0,4.69,1.5m0-1.5A4.69,4.69,0,1,1,0,4.69,4.69,4.69,0,0,1,4.69,0Z" transform="translate(8.262 6.016)" fill="#fece00"/>
    </g>
  </g>
</svg>